HIERARCHY
ROOT Hips
{
  OFFSET 265.287 66.7526 -254.649
  CHANNELS 6 Xposition Yposition Zposition Zrotation Xrotation Yrotation
  JOINT LeftUpLeg
  {
    OFFSET 8.64259 1.95398 -2.38835
    CHANNELS 3 Zrotation Xrotation Yrotation
    JOINT LeftLeg
    {
      OFFSET 43.7702 0 0
      CHANNELS 3 Zrotation Xrotation Yrotation
      JOINT LeftFoot
      {
        OFFSET 40.6238 0 0
        CHANNELS 3 Zrotation Xrotation Yrotation
        JOINT LeftToeBase
        {
          OFFSET 12.7242 0 0
          CHANNELS 3 Zrotation Xrotation Yrotation
          End Site
          {
            OFFSET 0 0 0
          }
        }
      }
    }
  }
  JOINT RightUpLeg
  {
    OFFSET -8.2249 1.95398 -2.59336
    CHANNELS 3 Zrotation Xrotation Yrotation
    JOINT RightLeg
    {
      OFFSET 43.5653 0 0
      CHANNELS 3 Zrotation Xrotation Yrotation
      JOINT RightFoot
      {
        OFFSET 40.6238 0 0
        CHANNELS 3 Zrotation Xrotation Yrotation
        JOINT RightToeBase
        {
          OFFSET 12.7242 0 0
          CHANNELS 3 Zrotation Xrotation Yrotation
          End Site
          {
            OFFSET 0 0 0
          }
        }
      }
    }
  }
  JOINT Spine
  {
    OFFSET 0.165834 0.87714 6.61349
    CHANNELS 3 Zrotation Xrotation Yrotation
    JOINT Spine1
    {
      OFFSET 7.38963 1.71661e-005 0
      CHANNELS 3 Zrotation Xrotation Yrotation
      JOINT Spine2
      {
        OFFSET 11.9445 1.14441e-005 0
        CHANNELS 3 Zrotation Xrotation Yrotation
        JOINT Spine3
        {
          OFFSET 14.7254 4.19617e-005 0
          CHANNELS 3 Zrotation Xrotation Yrotation
          JOINT Spine4
          {
            OFFSET 10.9679 0 0
            CHANNELS 3 Zrotation Xrotation Yrotation
            JOINT RightShoulder
            {
              OFFSET 2.46616 -1.6653 3.69651
              CHANNELS 3 Zrotation Xrotation Yrotation
              JOINT RightArm
              {
                OFFSET 13.0012 0 0
                CHANNELS 3 Zrotation Xrotation Yrotation
                JOINT RightForeArm
                {
                  OFFSET 28.7848 1.52588e-005 0
                  CHANNELS 3 Zrotation Xrotation Yrotation
                  JOINT RightHand
                  {
                    OFFSET 26.5688 1.52588e-005 0
                    CHANNELS 3 Zrotation Xrotation Yrotation
                    End Site
                    {
                      OFFSET 0 0 0
                    }
                  }
                }
              }
            }
            JOINT LeftShoulder
            {
              OFFSET 2.38034 -1.29275 -3.7523
              CHANNELS 3 Zrotation Xrotation Yrotation
              JOINT LeftArm
              {
                OFFSET 16.3182 6.10351e-005 0
                CHANNELS 3 Zrotation Xrotation Yrotation
                JOINT LeftForeArm
                {
                  OFFSET 27.0901 0 0
                  CHANNELS 3 Zrotation Xrotation Yrotation
                  JOINT LeftHand
                  {
                    OFFSET 24.5451 1.52588e-005 0
                    CHANNELS 3 Zrotation Xrotation Yrotation
                    End Site
                    {
                      OFFSET 0 0 0
                    }
                  }
                }
              }
            }
            JOINT Neck
            {
              OFFSET 5.0226 -0.0266342 0
              CHANNELS 3 Zrotation Xrotation Yrotation
              JOINT Head
              {
                OFFSET 6.69364 2.86102e-005 0
                CHANNELS 3 Zrotation Xrotation Yrotation
                End Site
                {
                  OFFSET 0 0 0
                }
              }
            }
          }
        }
      }
    }
  }
}
MOTION
Frames:	9
Frame Time:	0.0416667
275.404 49.0997 -270.966 -88.7625 -67.1882 -82.4206 171.389 -42.2861 97.2378 -1.55609 30.3329 0.123462 76.5104 8.54279 3.04706 94.3568 -62.1408 -63.8055 134.805 64.9735 115.937 -0.229602 -66.538 0.0146504 33.4869 46.1922 5.50432 119.317 47.2266 74.7668 -5.19589 6.32137 -82.5414 14.1777 -6.67189 15.8668 2.42008 -5.97767 16.1357 -19.6512 -11.0896 13.1998 0.361442 -11.0895 13.1998 -101.156 -21.1708 89.2099 135.627 45.6815 157.247 132.304 26.6637 -139.76 -21.3093 19.8591 -94.7831 -77.5455 13.9777 111.134 -91.0022 -37.2404 -131.465 -141.283 -67.0344 171.915 35.8973 32.5482 78.1604 -86.8132 27.2376 -22.337 95.0446 -5.61005 -18.4107 
265.385 67.785 -259.922 -81.8843 -62.6055 -76.9006 177.782 -35.5193 98.56 -3.99073 26.6529 0.701116 71.305 7.69725 -1.65092 77.7746 -62.2803 -86.0221 149.406 55.8305 106.557 -1.21087 -57.328 0.112982 41.7077 28.4775 2.50934 119.807 46.443 73.4716 -2.2468 7.2219 -89.1249 12.4735 -4.04774 2.21326 0.806659 -3.94645 2.38939 -21.7756 -4.52546 0.892468 -1.76293 -4.52547 0.892456 -86.6284 -76.6947 90.1631 -47.7522 11.7197 28.4342 4.03349 -67.8248 0.00567529 -23.3937 14.9064 -71.1961 -100.674 -78.3716 71.3703 169.633 70.6858 -92.016 16.436 -45.2992 -79.6231 98.6421 -21.0598 -21.7181 -73.2174 -4.37012 -22.8076 112.471 -14.0286 1.67756 
250.477 87.4801 -245.299 -77.6978 -57.1632 -76.6767 -175.598 -26.4117 95.2966 -15.8703 29.0893 2.50876 61.9768 2.7178 1.28312 42.0989 -39.6588 -137.568 167.902 46.3849 93.68 -5.49175 -10.5137 1.35725 49.666 1.8577 28.2049 141.771 39.1061 48.428 -1.57792 8.28283 -89.5036 10.3231 -2.91633 1.24666 -1.34531 -2.85864 1.37386 -23.9061 -3.15608 0.311735 -3.89348 -3.15608 0.311729 97.8526 -69.4302 -87.5004 14.4628 -13.0104 33.8797 1.32233 -13.9777 -22.5707 -10.837 2.81052 -42.8264 -86.2758 -42.6555 82.9934 24.2741 24.6698 -20.8784 -5.42815 -14.2244 -92.975 45.204 -2.72563 -11.3323 -53.7334 3.80074 -34.2752 108.422 9.95331 9.57604 
232.237 96.0125 -227.237 -85.3347 -54.8495 -86.4629 179.986 -7.2464 92.392 -70.3325 12.5267 4.44026 52.8343 -0.930448 4.57958 -85.4562 85.6275 -21.4951 173.298 32.4183 88.1172 -12.4931 -1.94395 4.82668 39.9664 9.14917 35.8143 93.9877 -8.85829 -3.18401 -1.23515 8.52376 -89.9538 9.84686 -2.4412 0.284013 -1.82161 -2.42632 0.391233 -24.3763 -2.41357 -0.463224 -4.36365 -2.41357 -0.463225 100.81 -50.0464 -84.322 29.2716 -10.5531 32.4412 -12.7551 -10.5165 -48.0599 -7.37692 1.02596 -23.862 -82.9251 -39.8534 88.0904 -5.86054 17.7275 -12.5899 7.29596 -10.9166 -90.0561 25.3347 0.0975731 -4.71942 -43.4965 1.45659 -31.8575 88.5967 20.308 24.243 
213.561 92.1949 -209.899 -92.6316 -50.5066 -86.2348 177.964 13.1894 91.0322 -107.031 8.35402 1.03668 45.033 -1.99592 12.0341 22.0521 -1.06741 6.06922 174.356 29.1764 98.2462 -44.593 -12.5488 4.56802 60.4631 2.93102 11.1331 33.6812 -1.32302 -2.34444 -0.565842 9.07371 -91.0426 8.71071 -1.59126 -1.96603 -2.96059 -1.67625 -1.89412 -25.4875 -0.926982 -2.3532 -5.47489 -0.926959 -2.35319 100.659 -52.3133 -84.4471 20.0808 -12.3995 11.9963 -10.2274 -7.69422 -53.5632 -14.6766 0.021137 -6.62619 -82.491 -45.5224 89.4172 -13.1825 17.6806 -0.144282 9.72838 -9.33323 -65.2654 23.0378 -2.22449 -13.3723 -12.7077 -0.542096 -28.6674 41.267 16.9376 39.512 
195.316 90.1237 -192.207 -89.1151 -47.2793 -81.4875 169.713 40.7922 99.0644 -103.659 5.19141 1.30244 52.3725 1.64174 15.2825 46.6442 -5.60885 -1.81068 176.525 15.6733 102.469 -50.987 -14.9979 3.69831 77.4093 -6.51413 5.19657 37.9029 -1.37904 1.81741 0.208725 8.87345 -91.4466 9.11526 -0.230462 -2.84879 -2.55877 -0.355574 -2.8359 -25.0696 0.636002 -2.78647 -5.057 0.636008 -2.78648 100.869 -49.4563 -84.2007 18.424 -14.044 -7.87141 -11.7896 -3.92187 -66.8536 -19.8604 -0.523542 -2.16408 -83.3105 -50.3789 88.6105 -13.57 27.1505 11.0412 3.76083 -5.4241 -48.4963 19.3354 -1.10178 -9.64058 25.1484 0.760915 -7.5013 -7.12452 2.86052 17.4394 
175.084 95.1191 -173.438 -81.3799 -43.8605 -83.5174 178.935 46.2438 88.1789 -51.1679 11.6237 2.25598 49.4188 -2.53333 10.2261 53.6235 -7.79959 -1.11946 177.356 -3.70681 94.4973 -26.2298 -12.8367 -0.445609 53.3556 6.44719 19.7243 41.3993 -1.68634 5.70208 0.854365 8.08941 -90.0962 10.6845 1.65762 -0.328752 -0.98553 1.64157 -0.401409 -23.5283 1.6797 0.184771 -3.51568 1.67972 0.184779 102.041 -47.7819 -82.3641 19.0298 -22.8576 -9.16881 -12.3398 0.558747 -87.0679 -18.8073 0.207228 -6.53542 -84.2848 -43.8264 86.3423 -26.0689 32.9523 24.1983 1.35238 -5.63549 -45.3314 19.7285 -1.28274 -10.4768 30.658 -0.594057 -3.44778 -16.4351 0.0159626 6.80901 
154.92 95.8321 -154.645 -84.0873 -43.2541 -85.8978 -175.537 35.6833 85.5732 -21.5749 13.0163 -0.979763 41.1488 -7.31757 1.10888 54.7122 -8.04276 0.000431611 177.996 -6.54569 97.2155 -49.8217 -18.2126 -2.1448 35.341 11.7877 19.1923 29.2382 -0.374675 2.21114 0.829266 8.27115 -89.804 10.3276 1.74183 0.234439 -1.34227 1.75046 0.157524 -23.8853 1.59083 0.747225 -3.87269 1.59083 0.747214 102.685 -47.8184 -81.3315 20.5599 -30.0365 -2.40966 -17.6328 10.7474 -90.9995 -18.4264 0.212268 -6.57993 -85.3195 -44.3846 84.738 -27.9714 31.5589 25.7153 0.975189 -5.96846 -45.7773 18.0298 -1.36653 -11.4335 29.7524 -0.399687 -2.14336 -16.5486 -0.255487 6.25426 
136.265 90.9039 -136.993 -93.6758 -45.7857 -97.7096 -174.017 26.438 77.575 -47.0095 17.8841 -3.05428 62.8063 5.38821 22.4081 42.8298 -4.32656 -2.57193 179.021 11.604 84.7508 -106.91 -18.1725 -3.8919 39.2701 9.69461 13.1669 28.6655 0.215167 -1.78125 0.0620712 9.2455 -89.1501 8.37921 0.498061 1.65715 -3.29248 0.570514 1.63364 -25.82 -0.0229559 1.7302 -5.80735 -0.022969 1.73018 102.388 -50.5892 -81.8209 24.6785 -24.3983 7.15449 -16.5885 -2.14501 -82.7686 -20.2305 -0.121667 -4.61028 -84.6813 -47.6324 86.1985 -11.7553 26.0962 2.49663 4.80265 -2.94203 -45.0441 18.9458 -0.99112 -9.18936 29.4937 -0.166971 -6.72113 -13.2371 1.65582 9.96851 
